<svg xmlns="http://www.w3.org/2000/svg" viewBox="0 0 64 64">
  <defs>
    <linearGradient id="wall" x1="0" x2="1" y1="0" y2="1">
      <stop offset="0" stop-color="#d6ca73"/>
      <stop offset="1" stop-color="#837430"/>
    </linearGradient>
    <linearGradient id="dark" x1="0" x2="0" y1="0" y2="1">
      <stop offset="0" stop-color="#1b1706"/>
      <stop offset="1" stop-color="#050500"/>
    </linearGradient>
    <filter id="soft-glow" x="-40%" y="-80%" width="180%" height="240%">
      <feGaussianBlur stdDeviation="2.3"/>
    </filter>
    <pattern id="paper" width="10" height="10" patternUnits="userSpaceOnUse">
      <path d="M0 6 Q3 2 5 6 T10 6" fill="none" stroke="#6e7628" stroke-width=".7" opacity=".48"/>
      <path d="M0 0 L10 10 M10 0 L0 10" stroke="#f2e990" stroke-width=".35" opacity=".35"/>
    </pattern>
  </defs>
  <rect width="64" height="64" rx="12" fill="#0b0a02"/>
  <path d="M7 12h50v40H7z" fill="url(#wall)"/>
  <path d="M7 12h50v40H7z" fill="url(#paper)" opacity=".72"/>
  <path d="M22 18h20l8 34H14z" fill="url(#dark)" opacity=".9"/>
  <path d="M22 18h20l8 34H14z" fill="#000" opacity=".18"/>
  <path d="M7 52h50v5H7z" fill="#66571f"/>
  <path d="M25 10h14v4H25z" fill="#fff7c2"/>
  <path d="M22 10h20v6H22z" fill="#fff3a8" opacity=".36" filter="url(#soft-glow)"/>
  <path d="M12 20h10M42 20h10M11 32h8M45 32h8" stroke="#544914" stroke-width="2" opacity=".42"/>
  <path d="M8 12h48v4H8z" fill="#4d4218" opacity=".54"/>
</svg>
